<svg width="379" height="530" viewBox="0 0 379 530" fill="none" xmlns="http://www.w3.org/2000/svg">
<circle cx="179.5" cy="77.5" r="77.5" fill="#B2C8BA"/>
<path d="M379 362.5C379 318.076 360.088 275.472 326.426 244.06C292.763 212.647 247.106 195 199.5 195C151.894 195 106.237 212.647 72.5743 244.06C38.9116 275.472 20 318.076 20 362.5L199.5 362.5H379Z" fill="#D2E3C8"/>
<path d="M359 362.5C359 318.076 340.088 275.472 306.426 244.06C272.763 212.647 227.106 195 179.5 195C131.894 195 86.2371 212.647 52.5743 244.06C18.9116 275.472 7.18836e-06 318.076 0 362.5L179.5 362.5H359Z" fill="#B2C8BA"/>
</svg>
